<?xml version="1.0" encoding="utf-8"?>
<!-- Generator: Adobe Illustrator 27.4.0, SVG Export Plug-In . SVG Version: 6.00 Build 0)  -->
<svg version="1.1" id="Layer_1" xmlns="http://www.w3.org/2000/svg" xmlns:xlink="http://www.w3.org/1999/xlink" x="0px" y="0px"
	 viewBox="0 0 1049.9 981.4" style="enable-background:new 0 0 1049.9 981.4;" xml:space="preserve">
<style type="text/css">
	.st0{fill-rule:evenodd;clip-rule:evenodd;fill:#AF9BB6;}
</style>
<path id="Color_Fill_1" class="st0" d="M69.8,0c244.5,0.2,474.6,1,716,1l185,1c29.5,0,63.3-3.7,79,10c2.4,26.9-24.8,50.8-37,69
	l-98,147c-8.2,11.3-51.2,57.2-40,72l3,4c52.4-1.8,63,3.2,89,33c0.1,20.7-7.5,35.1-11,49c-6.1,24.3-0.4,56.1-12,75
	c-8.3,13.5-41.9,29.1-43,42l11,25c13.2,51.7-36.3,46.8-47,79c-8.9,26.8,12.9,52.3,6,75c-4.1,13.5-22.5,5.1-24,23
	c10.9,25.8,15.8,73.8,10,113c-0.3,10.3-0.7,20.7-1,31c3.2,20.9,4.4,40.6,10,59l11,35c-34.4,52.8-135.3,43.1-192,19l-80-42l-31-9
	c-30-20.7-52.9-51.5-81-74c-21.3-17-47.1-39.3-54-70c-5.6-25,10.5-47.2,13-68h-1c-15.8,10.5-18.8,46.7-29,63l-21,17
	c-1.7,4.3-3.3,8.7-5,13c-18.6,16.6-53-1.6-79,3l-30,13h-28c-53,0-66.4-24.5-87-56h-5c-23.8,12.5-35.8,37.4-66,45
	c-52.3,13.2-117.3-52.2-97-106c22.1-58.6,69.9-31.4,97-71c16.4-24-0.5-70.5,10-105c16.3-53.6,47.3-95.6,71-143
	c8.3-16.7,20.3-35.6,24-56c3.4-18.7-23.4-49.7-31-62c-32.8-53.3-61.9-111.9-93-167c-6.4-11.4-44.4-61.2-33-75
	C52.9,3.8,61.7,4.1,69.8,0z M125.8,28c-11.6,11.8,13,42.5,20,55l59,98c10.8,18.8,19,45.4,36,58c36.3-0.9,77.6-14,111-22h22
	c9.1-2.2,23.5-6.2,34-8h30c41-9.8,98.9-11,148-11c57.9,0,117.3,1.9,166,11h29c13.5,3.2,57.5,15,70,12c18.6-6.3,31.8-41.1,42-57
	c26.3-40.9,68.5-84.4,86-131l-4-5c-11.7,0-31.1-2.5-38,2c-10.1,6.6-24.3,42-30,55c-14.8,34.1-41,80-63,109c-25.7,2.4-63.5-7.8-88-13
	h-25c-14.7-3-32.3-5.6-50-9l-3-5c-3.5-15.4,13.8-84.8,19-102c3.3-10.8,9.4-27.8-1-35c-3.3-2.3-13.5-3.2-18-1
	c-23.8,12.3-19.5,114-37,140c-5.6,8.3-39.8,4-53,4l-102,1c-15.3,2.6-41.6,6.5-57,4c-18.5-15.7-15.9-122-36-149
	c-11.3-0.5-16.3,0.7-22,5c0.9,36.5,9.5,68.4,17,103c2.4,11,12.4,27.8,7,42c-6.8,13.5-22.4,7-39,11c-23.2,5.6-88,25.8-109,22
	c-14.9-12.4-29.7-58.5-38-79l-31-61c-6.7-14.2-10.9-36.3-25-43L125.8,28z M579.8,258c-10.3,8.7-41.6,75-34,89
	c52.3-1.1,90.4-33.6,129-50c16.7-7.1,32.3-7,51-13c19.6-6.3,55-7.3,74,1c18.4,8.1,27.8,22.5,39,38c16.7-1.1,10.8-30.9,5-39
	c-3.8-5.3-15.1-9.1-22-11C752.7,254.4,664.7,257.2,579.8,258z M536.8,260c-17,23.5-23.1,54.7-35,84l-18,34l-6,26l-12,14
	c-9.6,15.9-33.1,68.2-29,90l4,1c14.7-9.8,16.7-38,23-56l15-29c0.7-4.3,1.3-8.7,2-13l14-18c11.9-26.8,20.6-50.8,32-78
	c5.5-13.1,22.1-40.8,14-55H536.8z M492.8,262c-12.8,18.3-18.1,46.4-26,69c-14.7,42.3-37.3,85.2-57,124c-8.4,16.4-24.1,42-16,66l5,2
	l8-3c7.8-71.1,48.9-130.8,73-191c4.6-11.4,27.5-47.8,22-62C499.8,262.6,499.2,262.2,492.8,262z M453.8,267c-13.8,12.4-19.2,39-26,58
	c-12.6,35.5-30.2,70.1-47,103c-8.1,15.9-23,32-25,53l3,5l4,1l8-2c17.8-52.2,48.5-103.3,70-157c7.5-18.7,21.1-36.7,17-61H453.8z
	 M409.8,270c-16.3,22.7-23.6,54.5-35,82l-37,76c-6.9,13.6-26.4,38.6-19,54l7-1c14.3-7,21.3-36.3,27-52l30-58
	c8.6-17.3,13.3-35.6,22-52c6.3-11.8,16.1-38.2,9-49H409.8z M367.8,279c-15.8,13.4-18.4,41.5-28,61l-64,133c-6,15.2-21.6,34.5-18,54
	l3,2h6c23.6-63.2,51.2-120.6,81-178c5.9-11.5,28.1-55.4,23-70C369,279,370.8,280.3,367.8,279z M323.8,287
	c-12.4,17.1-17.5,38.4-27,59l-46,91c-7.6,15-24.4,40.5-21,60c3,3,2.6,3.3,6,1c10.7-6.5,14.2-30.6,20-42l57-117
	c5.2-13.2,21.7-37.9,16-52H323.8z M280.8,295c-4.2,6.1-7.8,12.5-6,22c3.1,0,1.4,1,4-1c4.6-2.3,6.4-6.9,9-11c-0.1-4.4-0.4-5.7-2-8
	C283.8,294.9,284.8,295.6,280.8,295z M235.8,305c-17.2,23.2-24.7,55.9-39,82c-24.5,44.6-58.3,89.4-71,144
	c-12.1,52.2,18.8,78.7,52,87c9.7,2.4,17.6-2.2,23-4c20.6-6.8,34.6-21.5,40-43c6.5-26.1-28.5-59.4-59-47c-10.8,4.4-23.3,24.4-15,43
	l14,15h10l10-11c-0.5-7.6-2.7-7.8-6-12c-10.4-1-17.8-5.8-16-16l9-7c35.6-10.9,50.8,43,27,60c-32.3,23-69.8-1.3-77-34
	c-4.8-21.7,11.9-50.7,18-65c21.7-43.7,43.3-87.3,65-131c4.9-10.7,25.6-46.1,22-58l-2-3H235.8z M640.8,368
	c-14.1,12.9-68.3,20.2-76,33c-6.2,12.3-6,34.3-6,51v43c13.3,57,97.2,89.2,127,135c11,17,6.4,51.2,16,69h3c19-43.6,18.7-91.7,75-105
	c0.3-1.7,0.7-3.3,1-5c-9.7-16.6-31.2-29.5-17-62l-7-7l-34-1c-46.5-11.2-41.8-32.5-50-81l-7-6c-14.5-3.4-45.2,11.8-54-2
	c-10.9-26.8,30.3-41.9,39-56c-0.9-4.5,0.1-3-3-5L640.8,368z M215.8,441c-0.3,1.3-0.7,2.7-1,4l2,1l3-2v-1L215.8,441z M836.8,441
	c-11.5,13.2-13.3,36-23,51l-16,19v12l-13,16c0.3,5.3,0.7,10.7,1,16l7,7c29.6,0.1,37-26.1,66-21c11.3,2,13,10.1,24,12l5-4
	c2.4-21.9-35-97.6-48-108H836.8z M210.8,449c-7.3,11.6-18.7,25.3-21,41l3,4h6c7.9-9.7,18.7-29,17-44L210.8,449z M484.8,484
	c-2.7,5.1-5.3,8.1-6,15h7v-2C488.5,492.2,488.2,487.3,484.8,484z M330.8,507c-16.1,11.5-26.5,15.1-38,31c-0.4,10.2-0.4,21,3,27h5
	l2-3c0.7-8.7,1.3-17.3,2-26c9.5-26.8,39.3-9.9,57-7l1-1c0-7.3-1.3-8.1-4-12C349.7,513,342.1,507.9,330.8,507z M466.8,527l-4,6l1,4
	l24,5l20,15l2-1v-1C504.3,535.6,492.7,526.2,466.8,527z M447.8,539c-10.9,8.1-13.9,14.7-20,28c3.3,22.2,15.4,40.2,44,34
	c9.5-6.1,14.6-14.9,11-31l-6-7h-6c-6.5,4.4-8.9,9.9-19,11l-3-1l-4-5c-2.7-10.7,6.1-19.2,10-27l-1-2H447.8z M333.8,548l-5,6
	c0.3,7.8,3,13.7,6,19h6l2-3c2.6-3.8,2.2-10.9,1-16l-5-6H333.8z M371.8,555l-3,3v7l2,4c5.5,0,5.8,0.3,8-3v-9l-3-1L371.8,555z
	 M509.8,568c-1.8,4.2-2.1,8.8-1,14l2,1l4-2c0.7-3.3,1.3-6.7,2-10l-3-2L509.8,568z M270.8,584c0.4,11.4,7.8,16.3,18,21l2-1v-4
	C284.3,594.3,281,586,270.8,584z M365.8,584c-20.1,24.2-28.8,15.8-64,24v4c30.3,22.9,58.4-6.7,69-25l-1-3H365.8z M402.8,595
	c-12.5,27,48.4,55.2,76,40l2-4l-1-4c-39.9-2.7-55.5-6.1-71-32H402.8z M294.8,604v5h1l4-3C297.8,604.4,298.4,604.7,294.8,604z
	 M242.8,615c-4.1,5.2-15.2,18.6-9,27c2,2.1,1,1.4,5,2c6.8-4.5,8.9-11,14-17c0.1-6.6-0.8-8.5-3-12H242.8z M122.8,620
	c-5.9,6-15.2,14.1-10,25h7l10-11c-0.3-3.3-0.7-6.7-1-10C126.9,620.3,127.7,620.9,122.8,620z M275.8,634c-3.3,2.9-7.4,5.2-6,10
	c1.3,4.2,0.6,3.1,4,5l5,1l4-4c2.8-4.2,1.4-7-1-11L275.8,634z M386.8,635c-7.6,14.5-17.2,50.3-19,68l4,5c10.4-5.8,26.2-55.1,23-72
	L386.8,635z M351.8,639l-7,5c-3.8,30-38.7,90.4-35,108h1l4-1c3.1-8.4,7.9-10.9,12-17c5.7-8.4,32.3-80.4,29-88
	C355,640.9,355,641.3,351.8,639z M154.8,640c-8.3,8.7-19.5,17.7-16,35l3,1h5c8.4-5,15.6-20.4,17-32l-4-4H154.8z M195.8,643
	c-12.3,12.2-17.4,31-27,46c-14.1,22.1-35.5,43.7-48,67l1,4h1c27.1-3.7,57.6-56.6,69-79C196.3,672.2,212.2,647.5,195.8,643z
	 M311.8,646c-5.7,5.5-9.7,13.2-11,23l3,4c6.1-0.3,6.3-0.7,9-4c6.9-4.4,9.2-14.6,5-22L311.8,646z M61.8,662l-5,8c7.2,5,21.3,4.3,34,4
	c4.1,7.4,15.7,23.9,24,27C123.8,674,91.7,660.9,61.8,662z M417.8,663l-36,96l1,1c7.6-0.2,7.9-1.9,12-5c6-16.7,40.2-66.4,32-88l-2-4
	H417.8z M48.8,673l-9,2c-8.5,12.1-26.5,35.9-14,57h5l2-3c4.6-7.6-3-21.2,1-32C36.4,690,53.9,680.4,48.8,673z M234.8,673
	c-18.1,10.9-33.2,25.5-38,49c-6.5,31.9,43.9,74.8,79,56c-0.3-5.6-1-5.8-3-9c-32.3,1.3-70.8-19.6-55-59c13-32.6,56.9-24.8,64,9
	c3.3,1.1,7,0.8,10-1C298.6,684.9,268.3,671.9,234.8,673z M67.8,697c-7.1,5-12.6,9.2-13,21l7,14h5l2-3c4.2-6.8,9-18,10-26l-6-6H67.8z
	 M365.8,712l-5,6c0.3,2.3,0.7,4.7,1,7l2,3l3-1l4-5c-0.7-3.3-1.3-6.7-2-10H365.8z M247.8,714l-6,7v9l10,10c4.5-0.2,5.4-0.7,8-2v-17
	l-5-7H247.8z M358.8,731l-1,4l2,1l3-2v-1L358.8,731z M83.8,735l-3,3v4h2l3,1l2-6L83.8,735z M354.8,739l-1,2l2,2h2l1-2L354.8,739z
	 M32.8,740l-1,6c5.9,5.2,5,13.7,15,15l2-2v-5C43.5,750,39.2,742,32.8,740z M351.8,748l-10,8c1.3,3,0,1.2,2,3h5
	C350.6,755.4,352.8,751.4,351.8,748z M298.8,761l-8,1l-5,7l1,2l12-4V761z"/>
</svg>
